<?xml version="1.0" encoding="UTF-8" ?>
<svg version="1.1" width="108" height="40" xmlns="http://www.w3.org/2000/svg" shape-rendering="crispEdges">
<rect x="52" y="4" width="2" height="2" fill="#FFFFFF" />
<rect x="54" y="4" width="2" height="2" fill="#FFFFFF" />
<rect x="56" y="4" width="2" height="2" fill="#FFFFFF" />
<rect x="58" y="4" width="2" height="2" fill="#FFFFFF" />
<rect x="60" y="4" width="2" height="2" fill="#FFFFFF" />
<rect x="62" y="4" width="2" height="2" fill="#FFFFFF" />
<rect x="64" y="4" width="2" height="2" fill="#FFFFFF" />
<rect x="66" y="4" width="2" height="2" fill="#FFFFFF" />
<rect x="52" y="6" width="2" height="2" fill="#FFFFFF" />
<rect x="54" y="6" width="2" height="2" fill="#FFFFFF" />
<rect x="56" y="6" width="2" height="2" fill="#FFFFFF" />
<rect x="58" y="6" width="2" height="2" fill="#FFFFFF" />
<rect x="60" y="6" width="2" height="2" fill="#FFFFFF" />
<rect x="62" y="6" width="2" height="2" fill="#FFFFFF" />
<rect x="64" y="6" width="2" height="2" fill="#FFFFFF" />
<rect x="66" y="6" width="2" height="2" fill="#FFFFFF" />
<rect x="48" y="8" width="2" height="2" fill="#FFFFFF" />
<rect x="50" y="8" width="2" height="2" fill="#FFFFFF" />
<rect x="52" y="8" width="2" height="2" fill="#FFFFFF" />
<rect x="54" y="8" width="2" height="2" fill="#FFFFFF" />
<rect x="56" y="8" width="2" height="2" fill="#FFFFFF" />
<rect x="58" y="8" width="2" height="2" fill="#FFFFFF" />
<rect x="60" y="8" width="2" height="2" fill="#FFFFFF" />
<rect x="62" y="8" width="2" height="2" fill="#FFFFFF" />
<rect x="64" y="8" width="2" height="2" fill="#FFFFFF" />
<rect x="66" y="8" width="2" height="2" fill="#FFFFFF" />
<rect x="68" y="8" width="2" height="2" fill="#FFFFFF" />
<rect x="70" y="8" width="2" height="2" fill="#FFFFFF" />
<rect x="48" y="10" width="2" height="2" fill="#FFFFFF" />
<rect x="50" y="10" width="2" height="2" fill="#FFFFFF" />
<rect x="52" y="10" width="2" height="2" fill="#FFFFFF" />
<rect x="54" y="10" width="2" height="2" fill="#FFFFFF" />
<rect x="56" y="10" width="2" height="2" fill="#FFFFFF" />
<rect x="58" y="10" width="2" height="2" fill="#FFFFFF" />
<rect x="60" y="10" width="2" height="2" fill="#FFFFFF" />
<rect x="62" y="10" width="2" height="2" fill="#FFFFFF" />
<rect x="64" y="10" width="2" height="2" fill="#FFFFFF" />
<rect x="66" y="10" width="2" height="2" fill="#FFFFFF" />
<rect x="68" y="10" width="2" height="2" fill="#FFFFFF" />
<rect x="70" y="10" width="2" height="2" fill="#FFFFFF" />
<rect x="48" y="12" width="2" height="2" fill="#FFFFFF" />
<rect x="50" y="12" width="2" height="2" fill="#FFFFFF" />
<rect x="52" y="12" width="2" height="2" fill="#FFFFFF" />
<rect x="54" y="12" width="2" height="2" fill="#FFFFFF" />
<rect x="56" y="12" width="2" height="2" fill="#FFFFFF" />
<rect x="58" y="12" width="2" height="2" fill="#FFFFFF" />
<rect x="60" y="12" width="2" height="2" fill="#FFFFFF" />
<rect x="62" y="12" width="2" height="2" fill="#FFFFFF" />
<rect x="64" y="12" width="2" height="2" fill="#FFFFFF" />
<rect x="66" y="12" width="2" height="2" fill="#FFFFFF" />
<rect x="68" y="12" width="2" height="2" fill="#FFFFFF" />
<rect x="70" y="12" width="2" height="2" fill="#FFFFFF" />
<rect x="76" y="12" width="2" height="2" fill="#FFFFFF" />
<rect x="78" y="12" width="2" height="2" fill="#FFFFFF" />
<rect x="80" y="12" width="2" height="2" fill="#FFFFFF" />
<rect x="82" y="12" width="2" height="2" fill="#FFFFFF" />
<rect x="84" y="12" width="2" height="2" fill="#FFFFFF" />
<rect x="86" y="12" width="2" height="2" fill="#FFFFFF" />
<rect x="48" y="14" width="2" height="2" fill="#FFFFFF" />
<rect x="50" y="14" width="2" height="2" fill="#FFFFFF" />
<rect x="52" y="14" width="2" height="2" fill="#FFFFFF" />
<rect x="54" y="14" width="2" height="2" fill="#FFFFFF" />
<rect x="56" y="14" width="2" height="2" fill="#FFFFFF" />
<rect x="58" y="14" width="2" height="2" fill="#FFFFFF" />
<rect x="60" y="14" width="2" height="2" fill="#FFFFFF" />
<rect x="62" y="14" width="2" height="2" fill="#FFFFFF" />
<rect x="64" y="14" width="2" height="2" fill="#FFFFFF" />
<rect x="66" y="14" width="2" height="2" fill="#FFFFFF" />
<rect x="68" y="14" width="2" height="2" fill="#FFFFFF" />
<rect x="70" y="14" width="2" height="2" fill="#FFFFFF" />
<rect x="76" y="14" width="2" height="2" fill="#FFFFFF" />
<rect x="78" y="14" width="2" height="2" fill="#FFFFFF" />
<rect x="80" y="14" width="2" height="2" fill="#FFFFFF" />
<rect x="82" y="14" width="2" height="2" fill="#FFFFFF" />
<rect x="84" y="14" width="2" height="2" fill="#FFFFFF" />
<rect x="86" y="14" width="2" height="2" fill="#FFFFFF" />
<rect x="28" y="16" width="2" height="2" fill="#FFFFFF" />
<rect x="30" y="16" width="2" height="2" fill="#FFFFFF" />
<rect x="32" y="16" width="2" height="2" fill="#FFFFFF" />
<rect x="34" y="16" width="2" height="2" fill="#FFFFFF" />
<rect x="36" y="16" width="2" height="2" fill="#FFFFFF" />
<rect x="38" y="16" width="2" height="2" fill="#FFFFFF" />
<rect x="44" y="16" width="2" height="2" fill="#FFFFFF" />
<rect x="46" y="16" width="2" height="2" fill="#FFFFFF" />
<rect x="48" y="16" width="2" height="2" fill="#FFFFFF" />
<rect x="50" y="16" width="2" height="2" fill="#FFFFFF" />
<rect x="52" y="16" width="2" height="2" fill="#FFFFFF" />
<rect x="54" y="16" width="2" height="2" fill="#FFFFFF" />
<rect x="56" y="16" width="2" height="2" fill="#FFFFFF" />
<rect x="58" y="16" width="2" height="2" fill="#FFFFFF" />
<rect x="60" y="16" width="2" height="2" fill="#FFFFFF" />
<rect x="62" y="16" width="2" height="2" fill="#FFFFFF" />
<rect x="64" y="16" width="2" height="2" fill="#FFFFFF" />
<rect x="66" y="16" width="2" height="2" fill="#FFFFFF" />
<rect x="68" y="16" width="2" height="2" fill="#FFFFFF" />
<rect x="70" y="16" width="2" height="2" fill="#FFFFFF" />
<rect x="72" y="16" width="2" height="2" fill="#FFFFFF" />
<rect x="74" y="16" width="2" height="2" fill="#FFFFFF" />
<rect x="76" y="16" width="2" height="2" fill="#FFFFFF" />
<rect x="78" y="16" width="2" height="2" fill="#FFFFFF" />
<rect x="80" y="16" width="2" height="2" fill="#FFFFFF" />
<rect x="82" y="16" width="2" height="2" fill="#FFFFFF" />
<rect x="84" y="16" width="2" height="2" fill="#FFFFFF" />
<rect x="86" y="16" width="2" height="2" fill="#FFFFFF" />
<rect x="88" y="16" width="2" height="2" fill="#FFFFFF" />
<rect x="90" y="16" width="2" height="2" fill="#FFFFFF" />
<rect x="28" y="18" width="2" height="2" fill="#FFFFFF" />
<rect x="30" y="18" width="2" height="2" fill="#FFFFFF" />
<rect x="32" y="18" width="2" height="2" fill="#FFFFFF" />
<rect x="34" y="18" width="2" height="2" fill="#FFFFFF" />
<rect x="36" y="18" width="2" height="2" fill="#FFFFFF" />
<rect x="38" y="18" width="2" height="2" fill="#FFFFFF" />
<rect x="44" y="18" width="2" height="2" fill="#FFFFFF" />
<rect x="46" y="18" width="2" height="2" fill="#FFFFFF" />
<rect x="48" y="18" width="2" height="2" fill="#FFFFFF" />
<rect x="50" y="18" width="2" height="2" fill="#FFFFFF" />
<rect x="52" y="18" width="2" height="2" fill="#FFFFFF" />
<rect x="54" y="18" width="2" height="2" fill="#FFFFFF" />
<rect x="56" y="18" width="2" height="2" fill="#FFFFFF" />
<rect x="58" y="18" width="2" height="2" fill="#FFFFFF" />
<rect x="60" y="18" width="2" height="2" fill="#FFFFFF" />
<rect x="62" y="18" width="2" height="2" fill="#FFFFFF" />
<rect x="64" y="18" width="2" height="2" fill="#FFFFFF" />
<rect x="66" y="18" width="2" height="2" fill="#FFFFFF" />
<rect x="68" y="18" width="2" height="2" fill="#FFFFFF" />
<rect x="70" y="18" width="2" height="2" fill="#FFFFFF" />
<rect x="72" y="18" width="2" height="2" fill="#FFFFFF" />
<rect x="74" y="18" width="2" height="2" fill="#FFFFFF" />
<rect x="76" y="18" width="2" height="2" fill="#FFFFFF" />
<rect x="78" y="18" width="2" height="2" fill="#FFFFFF" />
<rect x="80" y="18" width="2" height="2" fill="#FFFFFF" />
<rect x="82" y="18" width="2" height="2" fill="#FFFFFF" />
<rect x="84" y="18" width="2" height="2" fill="#FFFFFF" />
<rect x="86" y="18" width="2" height="2" fill="#FFFFFF" />
<rect x="88" y="18" width="2" height="2" fill="#FFFFFF" />
<rect x="90" y="18" width="2" height="2" fill="#FFFFFF" />
<rect x="24" y="20" width="2" height="2" fill="#FFFFFF" />
<rect x="26" y="20" width="2" height="2" fill="#FFFFFF" />
<rect x="28" y="20" width="2" height="2" fill="#FFFFFF" />
<rect x="30" y="20" width="2" height="2" fill="#FFFFFF" />
<rect x="32" y="20" width="2" height="2" fill="#FFFFFF" />
<rect x="34" y="20" width="2" height="2" fill="#FFFFFF" />
<rect x="36" y="20" width="2" height="2" fill="#FFFFFF" />
<rect x="38" y="20" width="2" height="2" fill="#FFFFFF" />
<rect x="40" y="20" width="2" height="2" fill="#FFFFFF" />
<rect x="42" y="20" width="2" height="2" fill="#FFFFFF" />
<rect x="44" y="20" width="2" height="2" fill="#FFFFFF" />
<rect x="46" y="20" width="2" height="2" fill="#FFFFFF" />
<rect x="48" y="20" width="2" height="2" fill="#FFFFFF" />
<rect x="50" y="20" width="2" height="2" fill="#FFFFFF" />
<rect x="52" y="20" width="2" height="2" fill="#FFFFFF" />
<rect x="54" y="20" width="2" height="2" fill="#FFFFFF" />
<rect x="56" y="20" width="2" height="2" fill="#FFFFFF" />
<rect x="58" y="20" width="2" height="2" fill="#FFFFFF" />
<rect x="60" y="20" width="2" height="2" fill="#FFFFFF" />
<rect x="62" y="20" width="2" height="2" fill="#FFFFFF" />
<rect x="64" y="20" width="2" height="2" fill="#FFFFFF" />
<rect x="66" y="20" width="2" height="2" fill="#FFFFFF" />
<rect x="68" y="20" width="2" height="2" fill="#FFFFFF" />
<rect x="70" y="20" width="2" height="2" fill="#FFFFFF" />
<rect x="72" y="20" width="2" height="2" fill="#FFFFFF" />
<rect x="74" y="20" width="2" height="2" fill="#FFFFFF" />
<rect x="76" y="20" width="2" height="2" fill="#FFFFFF" />
<rect x="78" y="20" width="2" height="2" fill="#FFFFFF" />
<rect x="80" y="20" width="2" height="2" fill="#FFFFFF" />
<rect x="82" y="20" width="2" height="2" fill="#FFFFFF" />
<rect x="84" y="20" width="2" height="2" fill="#FFFFFF" />
<rect x="86" y="20" width="2" height="2" fill="#FFFFFF" />
<rect x="88" y="20" width="2" height="2" fill="#FFFFFF" />
<rect x="90" y="20" width="2" height="2" fill="#FFFFFF" />
<rect x="24" y="22" width="2" height="2" fill="#FFFFFF" />
<rect x="26" y="22" width="2" height="2" fill="#FFFFFF" />
<rect x="28" y="22" width="2" height="2" fill="#FFFFFF" />
<rect x="30" y="22" width="2" height="2" fill="#FFFFFF" />
<rect x="32" y="22" width="2" height="2" fill="#FFFFFF" />
<rect x="34" y="22" width="2" height="2" fill="#FFFFFF" />
<rect x="36" y="22" width="2" height="2" fill="#FFFFFF" />
<rect x="38" y="22" width="2" height="2" fill="#FFFFFF" />
<rect x="40" y="22" width="2" height="2" fill="#FFFFFF" />
<rect x="42" y="22" width="2" height="2" fill="#FFFFFF" />
<rect x="44" y="22" width="2" height="2" fill="#FFFFFF" />
<rect x="46" y="22" width="2" height="2" fill="#FFFFFF" />
<rect x="48" y="22" width="2" height="2" fill="#FFFFFF" />
<rect x="50" y="22" width="2" height="2" fill="#FFFFFF" />
<rect x="52" y="22" width="2" height="2" fill="#FFFFFF" />
<rect x="54" y="22" width="2" height="2" fill="#FFFFFF" />
<rect x="56" y="22" width="2" height="2" fill="#FFFFFF" />
<rect x="58" y="22" width="2" height="2" fill="#FFFFFF" />
<rect x="60" y="22" width="2" height="2" fill="#FFFFFF" />
<rect x="62" y="22" width="2" height="2" fill="#FFFFFF" />
<rect x="64" y="22" width="2" height="2" fill="#FFFFFF" />
<rect x="66" y="22" width="2" height="2" fill="#FFFFFF" />
<rect x="68" y="22" width="2" height="2" fill="#FFFFFF" />
<rect x="70" y="22" width="2" height="2" fill="#FFFFFF" />
<rect x="72" y="22" width="2" height="2" fill="#FFFFFF" />
<rect x="74" y="22" width="2" height="2" fill="#FFFFFF" />
<rect x="76" y="22" width="2" height="2" fill="#FFFFFF" />
<rect x="78" y="22" width="2" height="2" fill="#FFFFFF" />
<rect x="80" y="22" width="2" height="2" fill="#FFFFFF" />
<rect x="82" y="22" width="2" height="2" fill="#FFFFFF" />
<rect x="84" y="22" width="2" height="2" fill="#FFFFFF" />
<rect x="86" y="22" width="2" height="2" fill="#FFFFFF" />
<rect x="88" y="22" width="2" height="2" fill="#FFFFFF" />
<rect x="90" y="22" width="2" height="2" fill="#FFFFFF" />
<rect x="24" y="24" width="2" height="2" fill="#FFFFFF" />
<rect x="26" y="24" width="2" height="2" fill="#FFFFFF" />
<rect x="28" y="24" width="2" height="2" fill="#FFFFFF" />
<rect x="30" y="24" width="2" height="2" fill="#FFFFFF" />
<rect x="32" y="24" width="2" height="2" fill="#FFFFFF" />
<rect x="34" y="24" width="2" height="2" fill="#FFFFFF" />
<rect x="36" y="24" width="2" height="2" fill="#FFFFFF" />
<rect x="38" y="24" width="2" height="2" fill="#FFFFFF" />
<rect x="40" y="24" width="2" height="2" fill="#FFFFFF" />
<rect x="42" y="24" width="2" height="2" fill="#FFFFFF" />
<rect x="44" y="24" width="2" height="2" fill="#FFFFFF" />
<rect x="46" y="24" width="2" height="2" fill="#FFFFFF" />
<rect x="48" y="24" width="2" height="2" fill="#FFFFFF" />
<rect x="50" y="24" width="2" height="2" fill="#FFFFFF" />
<rect x="52" y="24" width="2" height="2" fill="#FFFFFF" />
<rect x="54" y="24" width="2" height="2" fill="#FFFFFF" />
<rect x="56" y="24" width="2" height="2" fill="#FFFFFF" />
<rect x="58" y="24" width="2" height="2" fill="#FFFFFF" />
<rect x="60" y="24" width="2" height="2" fill="#FFFFFF" />
<rect x="62" y="24" width="2" height="2" fill="#FFFFFF" />
<rect x="64" y="24" width="2" height="2" fill="#FFFFFF" />
<rect x="66" y="24" width="2" height="2" fill="#FFFFFF" />
<rect x="68" y="24" width="2" height="2" fill="#FFFFFF" />
<rect x="70" y="24" width="2" height="2" fill="#FFFFFF" />
<rect x="72" y="24" width="2" height="2" fill="#FFFFFF" />
<rect x="74" y="24" width="2" height="2" fill="#FFFFFF" />
<rect x="76" y="24" width="2" height="2" fill="#FFFFFF" />
<rect x="78" y="24" width="2" height="2" fill="#FFFFFF" />
<rect x="80" y="24" width="2" height="2" fill="#FFFFFF" />
<rect x="82" y="24" width="2" height="2" fill="#FFFFFF" />
<rect x="84" y="24" width="2" height="2" fill="#FFFFFF" />
<rect x="86" y="24" width="2" height="2" fill="#FFFFFF" />
<rect x="88" y="24" width="2" height="2" fill="#FFFFFF" />
<rect x="90" y="24" width="2" height="2" fill="#FFFFFF" />
<rect x="24" y="26" width="2" height="2" fill="#FFFFFF" />
<rect x="26" y="26" width="2" height="2" fill="#FFFFFF" />
<rect x="28" y="26" width="2" height="2" fill="#FFFFFF" />
<rect x="30" y="26" width="2" height="2" fill="#FFFFFF" />
<rect x="32" y="26" width="2" height="2" fill="#FFFFFF" />
<rect x="34" y="26" width="2" height="2" fill="#FFFFFF" />
<rect x="36" y="26" width="2" height="2" fill="#FFFFFF" />
<rect x="38" y="26" width="2" height="2" fill="#FFFFFF" />
<rect x="40" y="26" width="2" height="2" fill="#FFFFFF" />
<rect x="42" y="26" width="2" height="2" fill="#FFFFFF" />
<rect x="44" y="26" width="2" height="2" fill="#FFFFFF" />
<rect x="46" y="26" width="2" height="2" fill="#FFFFFF" />
<rect x="48" y="26" width="2" height="2" fill="#FFFFFF" />
<rect x="50" y="26" width="2" height="2" fill="#FFFFFF" />
<rect x="52" y="26" width="2" height="2" fill="#FFFFFF" />
<rect x="54" y="26" width="2" height="2" fill="#FFFFFF" />
<rect x="56" y="26" width="2" height="2" fill="#FFFFFF" />
<rect x="58" y="26" width="2" height="2" fill="#FFFFFF" />
<rect x="60" y="26" width="2" height="2" fill="#FFFFFF" />
<rect x="62" y="26" width="2" height="2" fill="#FFFFFF" />
<rect x="64" y="26" width="2" height="2" fill="#FFFFFF" />
<rect x="66" y="26" width="2" height="2" fill="#FFFFFF" />
<rect x="68" y="26" width="2" height="2" fill="#FFFFFF" />
<rect x="70" y="26" width="2" height="2" fill="#FFFFFF" />
<rect x="72" y="26" width="2" height="2" fill="#FFFFFF" />
<rect x="74" y="26" width="2" height="2" fill="#FFFFFF" />
<rect x="76" y="26" width="2" height="2" fill="#FFFFFF" />
<rect x="78" y="26" width="2" height="2" fill="#FFFFFF" />
<rect x="80" y="26" width="2" height="2" fill="#FFFFFF" />
<rect x="82" y="26" width="2" height="2" fill="#FFFFFF" />
<rect x="84" y="26" width="2" height="2" fill="#FFFFFF" />
<rect x="86" y="26" width="2" height="2" fill="#FFFFFF" />
<rect x="88" y="26" width="2" height="2" fill="#FFFFFF" />
<rect x="90" y="26" width="2" height="2" fill="#FFFFFF" />
<rect x="12" y="28" width="2" height="2" fill="#FFFFFF" />
<rect x="14" y="28" width="2" height="2" fill="#FFFFFF" />
<rect x="16" y="28" width="2" height="2" fill="#FFFFFF" />
<rect x="18" y="28" width="2" height="2" fill="#FFFFFF" />
<rect x="20" y="28" width="2" height="2" fill="#FFFFFF" />
<rect x="22" y="28" width="2" height="2" fill="#FFFFFF" />
<rect x="24" y="28" width="2" height="2" fill="#FFFFFF" />
<rect x="26" y="28" width="2" height="2" fill="#FFFFFF" />
<rect x="28" y="28" width="2" height="2" fill="#FFFFFF" />
<rect x="30" y="28" width="2" height="2" fill="#FFFFFF" />
<rect x="32" y="28" width="2" height="2" fill="#FFFFFF" />
<rect x="34" y="28" width="2" height="2" fill="#FFFFFF" />
<rect x="36" y="28" width="2" height="2" fill="#FFFFFF" />
<rect x="38" y="28" width="2" height="2" fill="#FFFFFF" />
<rect x="40" y="28" width="2" height="2" fill="#FFFFFF" />
<rect x="42" y="28" width="2" height="2" fill="#FFFFFF" />
<rect x="44" y="28" width="2" height="2" fill="#FFFFFF" />
<rect x="46" y="28" width="2" height="2" fill="#FFFFFF" />
<rect x="48" y="28" width="2" height="2" fill="#FFFFFF" />
<rect x="50" y="28" width="2" height="2" fill="#FFFFFF" />
<rect x="52" y="28" width="2" height="2" fill="#FFFFFF" />
<rect x="54" y="28" width="2" height="2" fill="#FFFFFF" />
<rect x="56" y="28" width="2" height="2" fill="#FFFFFF" />
<rect x="58" y="28" width="2" height="2" fill="#FFFFFF" />
<rect x="60" y="28" width="2" height="2" fill="#FFFFFF" />
<rect x="62" y="28" width="2" height="2" fill="#FFFFFF" />
<rect x="64" y="28" width="2" height="2" fill="#FFFFFF" />
<rect x="66" y="28" width="2" height="2" fill="#FFFFFF" />
<rect x="68" y="28" width="2" height="2" fill="#FFFFFF" />
<rect x="70" y="28" width="2" height="2" fill="#FFFFFF" />
<rect x="72" y="28" width="2" height="2" fill="#FFFFFF" />
<rect x="74" y="28" width="2" height="2" fill="#FFFFFF" />
<rect x="76" y="28" width="2" height="2" fill="#FFFFFF" />
<rect x="78" y="28" width="2" height="2" fill="#FFFFFF" />
<rect x="80" y="28" width="2" height="2" fill="#FFFFFF" />
<rect x="82" y="28" width="2" height="2" fill="#FFFFFF" />
<rect x="84" y="28" width="2" height="2" fill="#FFFFFF" />
<rect x="86" y="28" width="2" height="2" fill="#FFFFFF" />
<rect x="88" y="28" width="2" height="2" fill="#FFFFFF" />
<rect x="90" y="28" width="2" height="2" fill="#FFFFFF" />
<rect x="92" y="28" width="2" height="2" fill="#FFFFFF" />
<rect x="94" y="28" width="2" height="2" fill="#FFFFFF" />
<rect x="96" y="28" width="2" height="2" fill="#FFFFFF" />
<rect x="98" y="28" width="2" height="2" fill="#FFFFFF" />
<rect x="12" y="30" width="2" height="2" fill="#FFFFFF" />
<rect x="14" y="30" width="2" height="2" fill="#FFFFFF" />
<rect x="16" y="30" width="2" height="2" fill="#FFFFFF" />
<rect x="18" y="30" width="2" height="2" fill="#FFFFFF" />
<rect x="20" y="30" width="2" height="2" fill="#FFFFFF" />
<rect x="22" y="30" width="2" height="2" fill="#FFFFFF" />
<rect x="24" y="30" width="2" height="2" fill="#FFFFFF" />
<rect x="26" y="30" width="2" height="2" fill="#FFFFFF" />
<rect x="28" y="30" width="2" height="2" fill="#FFFFFF" />
<rect x="30" y="30" width="2" height="2" fill="#FFFFFF" />
<rect x="32" y="30" width="2" height="2" fill="#FFFFFF" />
<rect x="34" y="30" width="2" height="2" fill="#FFFFFF" />
<rect x="36" y="30" width="2" height="2" fill="#FFFFFF" />
<rect x="38" y="30" width="2" height="2" fill="#FFFFFF" />
<rect x="40" y="30" width="2" height="2" fill="#FFFFFF" />
<rect x="42" y="30" width="2" height="2" fill="#FFFFFF" />
<rect x="44" y="30" width="2" height="2" fill="#FFFFFF" />
<rect x="46" y="30" width="2" height="2" fill="#FFFFFF" />
<rect x="48" y="30" width="2" height="2" fill="#FFFFFF" />
<rect x="50" y="30" width="2" height="2" fill="#FFFFFF" />
<rect x="52" y="30" width="2" height="2" fill="#FFFFFF" />
<rect x="54" y="30" width="2" height="2" fill="#FFFFFF" />
<rect x="56" y="30" width="2" height="2" fill="#FFFFFF" />
<rect x="58" y="30" width="2" height="2" fill="#FFFFFF" />
<rect x="60" y="30" width="2" height="2" fill="#FFFFFF" />
<rect x="62" y="30" width="2" height="2" fill="#FFFFFF" />
<rect x="64" y="30" width="2" height="2" fill="#FFFFFF" />
<rect x="66" y="30" width="2" height="2" fill="#FFFFFF" />
<rect x="68" y="30" width="2" height="2" fill="#FFFFFF" />
<rect x="70" y="30" width="2" height="2" fill="#FFFFFF" />
<rect x="72" y="30" width="2" height="2" fill="#FFFFFF" />
<rect x="74" y="30" width="2" height="2" fill="#FFFFFF" />
<rect x="76" y="30" width="2" height="2" fill="#FFFFFF" />
<rect x="78" y="30" width="2" height="2" fill="#FFFFFF" />
<rect x="80" y="30" width="2" height="2" fill="#FFFFFF" />
<rect x="82" y="30" width="2" height="2" fill="#FFFFFF" />
<rect x="84" y="30" width="2" height="2" fill="#FFFFFF" />
<rect x="86" y="30" width="2" height="2" fill="#FFFFFF" />
<rect x="88" y="30" width="2" height="2" fill="#FFFFFF" />
<rect x="90" y="30" width="2" height="2" fill="#FFFFFF" />
<rect x="92" y="30" width="2" height="2" fill="#FFFFFF" />
<rect x="94" y="30" width="2" height="2" fill="#FFFFFF" />
<rect x="96" y="30" width="2" height="2" fill="#FFFFFF" />
<rect x="98" y="30" width="2" height="2" fill="#FFFFFF" />
<rect x="4" y="32" width="2" height="2" fill="#FFFFFF" />
<rect x="6" y="32" width="2" height="2" fill="#FFFFFF" />
<rect x="8" y="32" width="2" height="2" fill="#FFFFFF" />
<rect x="10" y="32" width="2" height="2" fill="#FFFFFF" />
<rect x="12" y="32" width="2" height="2" fill="#FFFFFF" />
<rect x="14" y="32" width="2" height="2" fill="#FFFFFF" />
<rect x="16" y="32" width="2" height="2" fill="#FFFFFF" />
<rect x="18" y="32" width="2" height="2" fill="#FFFFFF" />
<rect x="20" y="32" width="2" height="2" fill="#FFFFFF" />
<rect x="22" y="32" width="2" height="2" fill="#FFFFFF" />
<rect x="24" y="32" width="2" height="2" fill="#FFFFFF" />
<rect x="26" y="32" width="2" height="2" fill="#FFFFFF" />
<rect x="28" y="32" width="2" height="2" fill="#FFFFFF" />
<rect x="30" y="32" width="2" height="2" fill="#FFFFFF" />
<rect x="32" y="32" width="2" height="2" fill="#FFFFFF" />
<rect x="34" y="32" width="2" height="2" fill="#FFFFFF" />
<rect x="36" y="32" width="2" height="2" fill="#FFFFFF" />
<rect x="38" y="32" width="2" height="2" fill="#FFFFFF" />
<rect x="40" y="32" width="2" height="2" fill="#FFFFFF" />
<rect x="42" y="32" width="2" height="2" fill="#FFFFFF" />
<rect x="44" y="32" width="2" height="2" fill="#FFFFFF" />
<rect x="46" y="32" width="2" height="2" fill="#FFFFFF" />
<rect x="48" y="32" width="2" height="2" fill="#FFFFFF" />
<rect x="50" y="32" width="2" height="2" fill="#FFFFFF" />
<rect x="52" y="32" width="2" height="2" fill="#FFFFFF" />
<rect x="54" y="32" width="2" height="2" fill="#FFFFFF" />
<rect x="56" y="32" width="2" height="2" fill="#FFFFFF" />
<rect x="58" y="32" width="2" height="2" fill="#FFFFFF" />
<rect x="60" y="32" width="2" height="2" fill="#FFFFFF" />
<rect x="62" y="32" width="2" height="2" fill="#FFFFFF" />
<rect x="64" y="32" width="2" height="2" fill="#FFFFFF" />
<rect x="66" y="32" width="2" height="2" fill="#FFFFFF" />
<rect x="68" y="32" width="2" height="2" fill="#FFFFFF" />
<rect x="70" y="32" width="2" height="2" fill="#FFFFFF" />
<rect x="72" y="32" width="2" height="2" fill="#FFFFFF" />
<rect x="74" y="32" width="2" height="2" fill="#FFFFFF" />
<rect x="76" y="32" width="2" height="2" fill="#FFFFFF" />
<rect x="78" y="32" width="2" height="2" fill="#FFFFFF" />
<rect x="80" y="32" width="2" height="2" fill="#FFFFFF" />
<rect x="82" y="32" width="2" height="2" fill="#FFFFFF" />
<rect x="84" y="32" width="2" height="2" fill="#FFFFFF" />
<rect x="86" y="32" width="2" height="2" fill="#FFFFFF" />
<rect x="88" y="32" width="2" height="2" fill="#FFFFFF" />
<rect x="90" y="32" width="2" height="2" fill="#FFFFFF" />
<rect x="92" y="32" width="2" height="2" fill="#FFFFFF" />
<rect x="94" y="32" width="2" height="2" fill="#FFFFFF" />
<rect x="96" y="32" width="2" height="2" fill="#FFFFFF" />
<rect x="98" y="32" width="2" height="2" fill="#FFFFFF" />
<rect x="100" y="32" width="2" height="2" fill="#FFFFFF" />
<rect x="102" y="32" width="2" height="2" fill="#FFFFFF" />
<rect x="4" y="34" width="2" height="2" fill="#FFFFFF" />
<rect x="6" y="34" width="2" height="2" fill="#FFFFFF" />
<rect x="8" y="34" width="2" height="2" fill="#FFFFFF" />
<rect x="10" y="34" width="2" height="2" fill="#FFFFFF" />
<rect x="12" y="34" width="2" height="2" fill="#FFFFFF" />
<rect x="14" y="34" width="2" height="2" fill="#FFFFFF" />
<rect x="16" y="34" width="2" height="2" fill="#FFFFFF" />
<rect x="18" y="34" width="2" height="2" fill="#FFFFFF" />
<rect x="20" y="34" width="2" height="2" fill="#FFFFFF" />
<rect x="22" y="34" width="2" height="2" fill="#FFFFFF" />
<rect x="24" y="34" width="2" height="2" fill="#FFFFFF" />
<rect x="26" y="34" width="2" height="2" fill="#FFFFFF" />
<rect x="28" y="34" width="2" height="2" fill="#FFFFFF" />
<rect x="30" y="34" width="2" height="2" fill="#FFFFFF" />
<rect x="32" y="34" width="2" height="2" fill="#FFFFFF" />
<rect x="34" y="34" width="2" height="2" fill="#FFFFFF" />
<rect x="36" y="34" width="2" height="2" fill="#FFFFFF" />
<rect x="38" y="34" width="2" height="2" fill="#FFFFFF" />
<rect x="40" y="34" width="2" height="2" fill="#FFFFFF" />
<rect x="42" y="34" width="2" height="2" fill="#FFFFFF" />
<rect x="44" y="34" width="2" height="2" fill="#FFFFFF" />
<rect x="46" y="34" width="2" height="2" fill="#FFFFFF" />
<rect x="48" y="34" width="2" height="2" fill="#FFFFFF" />
<rect x="50" y="34" width="2" height="2" fill="#FFFFFF" />
<rect x="52" y="34" width="2" height="2" fill="#FFFFFF" />
<rect x="54" y="34" width="2" height="2" fill="#FFFFFF" />
<rect x="56" y="34" width="2" height="2" fill="#FFFFFF" />
<rect x="58" y="34" width="2" height="2" fill="#FFFFFF" />
<rect x="60" y="34" width="2" height="2" fill="#FFFFFF" />
<rect x="62" y="34" width="2" height="2" fill="#FFFFFF" />
<rect x="64" y="34" width="2" height="2" fill="#FFFFFF" />
<rect x="66" y="34" width="2" height="2" fill="#FFFFFF" />
<rect x="68" y="34" width="2" height="2" fill="#FFFFFF" />
<rect x="70" y="34" width="2" height="2" fill="#FFFFFF" />
<rect x="72" y="34" width="2" height="2" fill="#FFFFFF" />
<rect x="74" y="34" width="2" height="2" fill="#FFFFFF" />
<rect x="76" y="34" width="2" height="2" fill="#FFFFFF" />
<rect x="78" y="34" width="2" height="2" fill="#FFFFFF" />
<rect x="80" y="34" width="2" height="2" fill="#FFFFFF" />
<rect x="82" y="34" width="2" height="2" fill="#FFFFFF" />
<rect x="84" y="34" width="2" height="2" fill="#FFFFFF" />
<rect x="86" y="34" width="2" height="2" fill="#FFFFFF" />
<rect x="88" y="34" width="2" height="2" fill="#FFFFFF" />
<rect x="90" y="34" width="2" height="2" fill="#FFFFFF" />
<rect x="92" y="34" width="2" height="2" fill="#FFFFFF" />
<rect x="94" y="34" width="2" height="2" fill="#FFFFFF" />
<rect x="96" y="34" width="2" height="2" fill="#FFFFFF" />
<rect x="98" y="34" width="2" height="2" fill="#FFFFFF" />
<rect x="100" y="34" width="2" height="2" fill="#FFFFFF" />
<rect x="102" y="34" width="2" height="2" fill="#FFFFFF" />
</svg>