<?xml version="1.0" encoding="UTF-8" ?>
<svg version="1.1" width="64" height="64" xmlns="http://www.w3.org/2000/svg" shape-rendering="crispEdges">
<rect x="30" y="18" width="2" height="2" fill="#FFFFFF" />
<rect x="32" y="18" width="2" height="2" fill="#FFFFFF" />
<rect x="30" y="20" width="2" height="2" fill="#FFFFFF" />
<rect x="32" y="20" width="2" height="2" fill="#FFFFFF" />
<rect x="30" y="22" width="2" height="2" fill="#FFFFFF" />
<rect x="32" y="22" width="2" height="2" fill="#FFFFFF" />
<rect x="30" y="24" width="2" height="2" fill="#FFFFFF" />
<rect x="32" y="24" width="2" height="2" fill="#FFFFFF" />
<rect x="30" y="26" width="2" height="2" fill="#FFFFFF" />
<rect x="32" y="26" width="2" height="2" fill="#FFFFFF" />
<rect x="30" y="28" width="2" height="2" fill="#FFFFFF" />
<rect x="32" y="28" width="2" height="2" fill="#FFFFFF" />
<rect x="20" y="30" width="2" height="2" fill="#FFFFFF" />
<rect x="22" y="30" width="2" height="2" fill="#FFFFFF" />
<rect x="24" y="30" width="2" height="2" fill="#FFFFFF" />
<rect x="26" y="30" width="2" height="2" fill="#FFFFFF" />
<rect x="28" y="30" width="2" height="2" fill="#FFFFFF" />
<rect x="30" y="30" width="2" height="2" fill="#FFFFFF" />
<rect x="32" y="30" width="2" height="2" fill="#FFFFFF" />
<rect x="34" y="30" width="2" height="2" fill="#FFFFFF" />
<rect x="36" y="30" width="2" height="2" fill="#FFFFFF" />
<rect x="38" y="30" width="2" height="2" fill="#FFFFFF" />
<rect x="40" y="30" width="2" height="2" fill="#FFFFFF" />
<rect x="42" y="30" width="2" height="2" fill="#FFFFFF" />
<rect x="20" y="32" width="2" height="2" fill="#FFFFFF" />
<rect x="22" y="32" width="2" height="2" fill="#FFFFFF" />
<rect x="24" y="32" width="2" height="2" fill="#FFFFFF" />
<rect x="26" y="32" width="2" height="2" fill="#FFFFFF" />
<rect x="28" y="32" width="2" height="2" fill="#FFFFFF" />
<rect x="30" y="32" width="2" height="2" fill="#FFFFFF" />
<rect x="32" y="32" width="2" height="2" fill="#FFFFFF" />
<rect x="34" y="32" width="2" height="2" fill="#FFFFFF" />
<rect x="36" y="32" width="2" height="2" fill="#FFFFFF" />
<rect x="38" y="32" width="2" height="2" fill="#FFFFFF" />
<rect x="40" y="32" width="2" height="2" fill="#FFFFFF" />
<rect x="42" y="32" width="2" height="2" fill="#FFFFFF" />
<rect x="30" y="34" width="2" height="2" fill="#FFFFFF" />
<rect x="32" y="34" width="2" height="2" fill="#FFFFFF" />
<rect x="30" y="36" width="2" height="2" fill="#FFFFFF" />
<rect x="32" y="36" width="2" height="2" fill="#FFFFFF" />
<rect x="30" y="38" width="2" height="2" fill="#FFFFFF" />
<rect x="32" y="38" width="2" height="2" fill="#FFFFFF" />
<rect x="30" y="40" width="2" height="2" fill="#FFFFFF" />
<rect x="32" y="40" width="2" height="2" fill="#FFFFFF" />
<rect x="30" y="42" width="2" height="2" fill="#FFFFFF" />
<rect x="32" y="42" width="2" height="2" fill="#FFFFFF" />
<rect x="30" y="44" width="2" height="2" fill="#FFFFFF" />
<rect x="32" y="44" width="2" height="2" fill="#FFFFFF" />
</svg>